<svg width="91" height="91" viewBox="0 0 91 91" fill="none" xmlns="http://www.w3.org/2000/svg">
<rect x="0.5" y="0.5" width="90" height="90" rx="45" fill="#191919"/>
<rect x="0.5" y="0.5" width="90" height="90" rx="45" stroke="url(#paint0_linear_15_50)"/>
<path d="M45.9816 45.8513L63.2292 41.6303V66.8499C63.2292 69.1467 61.3759 71 59.088 71H32.6357C32.1392 71 31.6692 70.8315 31.2258 70.663L40.6255 62.6112C42.0355 63.8349 43.8267 64.633 45.8397 64.633C50.2824 64.633 53.8915 61.0239 53.8915 56.5812C53.8915 52.1385 50.2824 48.5293 45.8397 48.5293C41.397 48.5293 37.7879 52.1385 37.7879 56.5812C37.7879 57.8226 38.1426 58.9488 38.6392 60.0041L28.867 68.3752C28.663 67.8963 28.4768 67.3909 28.4768 66.8411V41.5682L45.9638 45.8602L45.9816 45.8513ZM45.8486 51.6508C48.5709 51.6508 50.7701 53.8499 50.7701 56.5723C50.7701 59.2947 48.5709 61.4939 45.8486 61.4939C43.1262 61.4939 40.927 59.2947 40.927 56.5723C40.927 53.8499 43.1262 51.6508 45.8486 51.6508ZM55.9666 45.5232C54.8226 45.5232 53.8915 46.4454 53.8915 47.5982C53.8915 48.751 54.8138 49.6733 55.9666 49.6733C57.1194 49.6733 58.0416 48.751 58.0416 47.5982C58.0416 46.4543 57.1194 45.5232 55.9666 45.5232ZM61.8902 35.4318L69.4543 37.4359L45.9727 42.8984L22.5 37.427L30.0641 35.4229L36.6705 19H55.2838L61.8902 35.4229V35.4318Z" fill="url(#paint1_linear_15_50)"/>
<defs>
<linearGradient id="paint0_linear_15_50" x1="-0.412461" y1="90.5344" x2="79.5122" y2="4.36984" gradientUnits="userSpaceOnUse">
<stop stop-color="#F9CE34"/>
<stop offset="0.52" stop-color="#EE2A7B"/>
<stop offset="1" stop-color="#6228D7"/>
</linearGradient>
<linearGradient id="paint1_linear_15_50" x1="22.2872" y1="70.734" x2="68.0709" y2="26.1651" gradientUnits="userSpaceOnUse">
<stop stop-color="#F9CE34"/>
<stop offset="0.52" stop-color="#EE2A7B"/>
<stop offset="1" stop-color="#6228D7"/>
</linearGradient>
</defs>
</svg>
