<svg width="463" height="61" viewBox="0 0 463 61" fill="none" xmlns="http://www.w3.org/2000/svg">
<g clip-path="url(#clip0_15_29)">
<path d="M78.17 20.1L78.27 58.93H64.02C64.17 52.86 64.3 46.43 64.42 39.66C64.4 32.99 64.25 26.47 63.97 20.09H78.17V20.1Z" fill="white"/>
<path d="M124.14 58.93H110.06V42.28C110.06 40.73 109.82 39.43 109.35 38.39C108.87 37.34 108.22 36.55 107.39 36.01C106.56 35.47 105.62 35.2 104.57 35.2C103.52 35.2 102.48 35.3 101.4 35.5C98.84 35.93 97.56 36.78 97.56 38.05V58.94H83.51L83.53 58.84C83.53 58.84 83.57 58.67 83.59 58.48C83.61 58.29 83.64 58 83.67 57.62C83.7 57.24 83.72 56.73 83.74 56.11C83.77 55.49 83.79 54.7 83.82 53.75C83.84 52.8 83.87 51.67 83.9 50.34C83.92 49.02 83.94 47.47 83.95 45.71C83.95 43.95 83.96 41.93 83.96 39.67C83.96 37.77 83.92 35.74 83.85 33.58C83.78 31.42 83.71 29.57 83.64 28.04L83.52 25.74H97.57V28.74C100.2 26.24 104.34 24.98 110 24.95C112.76 25.02 115.2 25.68 117.32 26.95C119.44 28.22 121.11 29.82 122.32 31.75C123.53 33.69 124.14 35.65 124.14 37.63V58.94V58.93Z" fill="white"/>
<path d="M146.9 60C144.36 60 141.8 59.82 139.24 59.46C136.68 59.1 134.3 58.53 132.1 57.74C129.9 56.95 128.02 55.91 126.46 54.63L133.65 48.62C137.29 51.56 141.41 53.04 146 53.04C147.46 53.04 148.7 52.8 149.69 52.3C150.68 51.8 151.19 51.18 151.19 50.42C151.19 49.89 150.89 49.48 150.28 49.21C149.67 48.94 148.85 48.73 147.82 48.59C146.79 48.45 145.62 48.32 144.33 48.2C142.88 48.08 141.37 47.92 139.8 47.71C138.23 47.5 136.69 47.18 135.18 46.74C133.67 46.3 132.31 45.68 131.1 44.87C129.88 44.06 128.91 43.01 128.18 41.7C127.45 40.39 127.08 38.75 127.08 36.77C127.08 35.06 127.45 33.56 128.2 32.29C128.95 31.02 129.97 29.93 131.27 29.03C132.57 28.13 134.06 27.4 135.74 26.85C137.42 26.29 139.21 25.89 141.11 25.64C143.01 25.39 144.91 25.27 146.83 25.27C151.59 25.27 155.52 25.73 158.62 26.64C161.72 27.56 164.4 28.99 166.64 30.93L159.45 36.94C157.87 35.66 156.33 34.67 154.82 33.98C153.31 33.29 151.91 32.82 150.6 32.57C149.29 32.32 148.17 32.2 147.22 32.2C145.81 32.2 144.59 32.45 143.58 32.95C142.56 33.45 142.06 34.08 142.06 34.85C142.06 35.33 142.35 35.7 142.92 35.95C143.49 36.2 144.27 36.39 145.25 36.51C146.23 36.63 147.35 36.75 148.59 36.85C150.04 36.97 151.56 37.13 153.16 37.34C154.76 37.55 156.32 37.87 157.85 38.31C159.38 38.75 160.77 39.38 162.02 40.21C163.27 41.03 164.27 42.12 165.02 43.45C165.77 44.79 166.14 46.47 166.14 48.48C166.14 50.49 165.72 52.05 164.89 53.4C164.06 54.75 162.95 55.85 161.57 56.72C160.19 57.59 158.66 58.26 156.98 58.74C155.3 59.22 153.58 59.56 151.83 59.74C150.08 59.92 148.43 60.01 146.9 60.01V60Z" fill="white"/>
<path d="M186.69 60.38C184.59 60.38 182.36 60.13 180 59.64C177.64 59.15 175.54 58.06 173.71 56.38C171.88 54.7 170.85 52.21 170.61 48.92V32.8H167.39V25.79H170.61V25.77L174.68 23C177.38 21.17 180.44 18.99 183.87 16.46V25.74H184.24V25.79H192.25V32.8H184.16L184.19 34.62C184.21 36.72 184.21 40.63 184.21 46.35C184.28 48.11 184.56 49.44 185.06 50.34C185.81 51.74 186.95 52.44 188.48 52.44C189.45 52.44 190.47 52.15 191.55 51.57L194.79 59.63C193.02 59.98 190.85 60.21 188.25 60.33C187.73 60.36 187.21 60.38 186.68 60.38H186.69Z" fill="white"/>
<path d="M207.63 59.8H207.53C204.78 59.7 202.36 58.79 200.25 57.07C198.15 55.35 196.49 53.13 195.29 50.42C194.08 47.71 193.48 44.89 193.48 41.96C193.48 39.03 194.08 36.35 195.29 33.91C196.5 31.47 198.15 29.52 200.25 28.06C202.36 26.6 204.78 25.83 207.53 25.76H219.61L219.59 25.73H233.64V58.92H219.59L219.66 58.37C219.71 57.89 219.76 57.16 219.81 56.17C217.18 58.55 213.12 59.76 207.63 59.79V59.8ZM213.32 49.52C214.82 49.52 216.26 49.32 217.65 48.92C219.04 48.52 219.83 47.85 220.03 46.9V42.48C220.03 39.6 220.03 37.18 220.01 35.22H213.32C212.27 35.22 211.31 35.49 210.42 36.02C208.49 37.2 207.53 39.32 207.53 42.38C207.53 43.98 207.8 45.3 208.33 46.35C208.86 47.4 209.56 48.19 210.44 48.72C211.32 49.25 212.27 49.52 213.32 49.52Z" fill="white"/>
<path d="M260.44 60.1C257.13 60.1 254.02 59.57 251.11 58.5C248.2 57.44 245.65 55.96 243.45 54.07C241.25 52.18 239.53 49.99 238.29 47.49C237.04 44.99 236.42 42.32 236.42 39.48C236.42 36.64 237.04 33.96 238.29 31.47C239.54 28.97 241.26 26.78 243.45 24.89C245.65 23 248.2 21.52 251.11 20.46C254.02 19.4 257.13 18.86 260.44 18.86C264.9 18.86 268.96 19.8 272.61 21.67C276.26 23.54 279.15 26.05 281.28 29.19L269 36C268.39 33.89 267.24 32.17 265.56 30.85C263.88 29.53 262.17 28.87 260.44 28.87C258.98 28.87 257.55 29.36 256.17 30.33C254.79 31.3 253.65 32.61 252.75 34.24C251.85 35.87 251.4 37.68 251.4 39.66C251.4 41.64 251.85 43.45 252.75 45.08C253.65 46.71 254.79 48.01 256.17 48.97C257.55 49.94 258.97 50.42 260.44 50.42C262.05 50.42 263.68 49.84 265.31 48.67C266.94 47.5 268.1 45.97 268.78 44.05L280.66 50.66C278.48 53.54 275.63 55.83 272.1 57.54C268.57 59.25 264.69 60.1 260.44 60.1Z" fill="white"/>
<path d="M260.44 60.1C257.13 60.1 254.02 59.57 251.11 58.5C248.2 57.44 245.65 55.96 243.45 54.07C241.25 52.18 239.53 49.99 238.29 47.49C237.04 44.99 236.42 42.32 236.42 39.48C236.42 36.64 237.04 33.96 238.29 31.47C239.54 28.97 241.26 26.78 243.45 24.89C245.65 23 248.2 21.52 251.11 20.46C254.02 19.4 257.13 18.86 260.44 18.86C264.9 18.86 268.96 19.8 272.61 21.67C276.26 23.54 279.15 26.05 281.28 29.19L269 36C268.39 33.89 267.24 32.17 265.56 30.85C263.88 29.53 262.17 28.87 260.44 28.87C258.98 28.87 257.55 29.36 256.17 30.33C254.79 31.3 253.65 32.61 252.75 34.24C251.85 35.87 251.4 37.68 251.4 39.66C251.4 41.64 251.85 43.45 252.75 45.08C253.65 46.71 254.79 48.01 256.17 48.97C257.55 49.94 258.97 50.42 260.44 50.42C262.05 50.42 263.68 49.84 265.31 48.67C266.94 47.5 268.1 45.97 268.78 44.05L280.66 50.66C278.48 53.54 275.63 55.83 272.1 57.54C268.57 59.25 264.69 60.1 260.44 60.1Z" fill="url(#paint0_linear_15_29)"/>
<path d="M297.13 17.35L297.23 58.93H283.18C283.35 52.42 283.49 45.54 283.6 38.29C283.58 31.15 283.43 24.17 283.15 17.35H297.13Z" fill="white"/>
<path d="M297.13 17.35L297.23 58.93H283.18C283.35 52.42 283.49 45.54 283.6 38.29C283.58 31.15 283.43 24.17 283.15 17.35H297.13Z" fill="url(#paint1_linear_15_29)"/>
<path d="M320.11 59.78C316.52 59.78 313.52 59.36 311.12 58.51C303.98 55.98 300.41 50.59 300.41 42.34C300.41 36.95 302.17 32.66 305.7 29.46C309.04 26.45 313.99 24.94 320.55 24.94C326.07 24.94 330.51 26.12 333.85 28.48C336.59 30.43 338.55 32.9 339.71 35.89C340.59 38.15 341.03 40.3 341.03 42.33C341.03 44.66 340.62 46.91 339.81 49.07C338.71 52.06 336.77 54.49 333.97 56.36C330.58 58.64 325.95 59.78 320.09 59.78H320.11ZM320.53 50.35C323.13 50.35 324.93 49.28 325.95 47.16C326.63 45.73 326.97 44.12 326.97 42.34C326.97 41.97 326.93 41.47 326.85 40.82C326.77 40.17 326.61 39.48 326.36 38.74C326.12 38 325.76 37.3 325.29 36.64C324.81 35.98 324.2 35.44 323.46 35.01C322.72 34.58 321.79 34.36 320.69 34.36C318.23 34.36 316.5 35.4 315.5 37.48C314.82 38.89 314.48 40.52 314.48 42.35C314.48 44.18 314.8 45.86 315.43 47.24C316.38 49.32 318.08 50.36 320.55 50.36L320.53 50.35Z" fill="white"/>
<path d="M320.11 59.78C316.52 59.78 313.52 59.36 311.12 58.51C303.98 55.98 300.41 50.59 300.41 42.34C300.41 36.95 302.17 32.66 305.7 29.46C309.04 26.45 313.99 24.94 320.55 24.94C326.07 24.94 330.51 26.12 333.85 28.48C336.59 30.43 338.55 32.9 339.71 35.89C340.59 38.15 341.03 40.3 341.03 42.33C341.03 44.66 340.62 46.91 339.81 49.07C338.71 52.06 336.77 54.49 333.97 56.36C330.58 58.64 325.95 59.78 320.09 59.78H320.11ZM320.53 50.35C323.13 50.35 324.93 49.28 325.95 47.16C326.63 45.73 326.97 44.12 326.97 42.34C326.97 41.97 326.93 41.47 326.85 40.82C326.77 40.17 326.61 39.48 326.36 38.74C326.12 38 325.76 37.3 325.29 36.64C324.81 35.98 324.2 35.44 323.46 35.01C322.72 34.58 321.79 34.36 320.69 34.36C318.23 34.36 316.5 35.4 315.5 37.48C314.82 38.89 314.48 40.52 314.48 42.35C314.48 44.18 314.8 45.86 315.43 47.24C316.38 49.32 318.08 50.36 320.55 50.36L320.53 50.35Z" fill="url(#paint2_linear_15_29)"/>
<path d="M384.55 58.93H370.47V42.28C370.47 40.73 370.23 39.43 369.76 38.39C369.28 37.34 368.63 36.55 367.8 36.01C366.97 35.47 366.03 35.2 364.98 35.2C363.93 35.2 362.89 35.3 361.81 35.5C359.25 35.93 357.97 36.78 357.97 38.05V58.94H343.92L343.94 58.84C343.94 58.84 343.98 58.67 344 58.48C344.02 58.29 344.05 58 344.08 57.62C344.11 57.24 344.13 56.73 344.15 56.11C344.18 55.49 344.2 54.7 344.23 53.75C344.25 52.8 344.28 51.67 344.31 50.34C344.33 49.02 344.35 47.47 344.36 45.71C344.36 43.95 344.37 41.93 344.37 39.67C344.37 37.77 344.33 35.74 344.26 33.58C344.19 31.42 344.12 29.57 344.05 28.04L343.93 25.74H357.98V28.74C360.61 26.24 364.75 24.98 370.41 24.95C373.17 25.02 375.61 25.68 377.73 26.95C379.85 28.22 381.52 29.82 382.73 31.75C383.94 33.69 384.55 35.65 384.55 37.63V58.94V58.93Z" fill="white"/>
<path d="M384.55 58.93H370.47V42.28C370.47 40.73 370.23 39.43 369.76 38.39C369.28 37.34 368.63 36.55 367.8 36.01C366.97 35.47 366.03 35.2 364.98 35.2C363.93 35.2 362.89 35.3 361.81 35.5C359.25 35.93 357.97 36.78 357.97 38.05V58.94H343.92L343.94 58.84C343.94 58.84 343.98 58.67 344 58.48C344.02 58.29 344.05 58 344.08 57.62C344.11 57.24 344.13 56.73 344.15 56.11C344.18 55.49 344.2 54.7 344.23 53.75C344.25 52.8 344.28 51.67 344.31 50.34C344.33 49.02 344.35 47.47 344.36 45.71C344.36 43.95 344.37 41.93 344.37 39.67C344.37 37.77 344.33 35.74 344.26 33.58C344.19 31.42 344.12 29.57 344.05 28.04L343.93 25.74H357.98V28.74C360.61 26.24 364.75 24.98 370.41 24.95C373.17 25.02 375.61 25.68 377.73 26.95C379.85 28.22 381.52 29.82 382.73 31.75C383.94 33.69 384.55 35.65 384.55 37.63V58.94V58.93Z" fill="url(#paint3_linear_15_29)"/>
<path d="M406.82 59.78C403.21 59.78 400.21 59.36 397.83 58.51C390.69 55.98 387.12 50.59 387.12 42.34C387.12 36.95 388.88 32.66 392.41 29.46C395.75 26.45 400.7 24.94 407.26 24.94C412.77 24.94 417.2 26.15 420.56 28.56C423.29 30.54 425.24 33.04 426.42 36.05C427.29 38.28 427.72 40.38 427.72 42.34C427.72 43.14 427.65 44.07 427.52 45.13H401.46C401.64 45.88 401.95 46.65 402.37 47.44C402.79 48.23 403.4 48.91 404.18 49.49C404.96 50.06 405.98 50.35 407.22 50.35C408.02 50.35 408.72 50.19 409.33 49.88C409.94 49.57 410.47 49.19 410.92 48.77C411.37 48.35 411.75 47.93 412.07 47.53H427C426.09 50.76 424.25 53.46 421.48 55.64C417.99 58.4 413.09 59.78 406.81 59.78H406.82ZM413.26 39.61C413.06 38.88 412.73 38.11 412.27 37.31C411.81 36.51 411.19 35.82 410.4 35.23C409.61 34.64 408.61 34.34 407.39 34.34C406.17 34.34 405.09 34.63 404.3 35.2C403.5 35.77 402.88 36.47 402.44 37.27C402 38.08 401.69 38.86 401.51 39.6H413.26V39.61Z" fill="white"/>
<path d="M406.82 59.78C403.21 59.78 400.21 59.36 397.83 58.51C390.69 55.98 387.12 50.59 387.12 42.34C387.12 36.95 388.88 32.66 392.41 29.46C395.75 26.45 400.7 24.94 407.26 24.94C412.77 24.94 417.2 26.15 420.56 28.56C423.29 30.54 425.24 33.04 426.42 36.05C427.29 38.28 427.72 40.38 427.72 42.34C427.72 43.14 427.65 44.07 427.52 45.13H401.46C401.64 45.88 401.95 46.65 402.37 47.44C402.79 48.23 403.4 48.91 404.18 49.49C404.96 50.06 405.98 50.35 407.22 50.35C408.02 50.35 408.72 50.19 409.33 49.88C409.94 49.57 410.47 49.19 410.92 48.77C411.37 48.35 411.75 47.93 412.07 47.53H427C426.09 50.76 424.25 53.46 421.48 55.64C417.99 58.4 413.09 59.78 406.81 59.78H406.82ZM413.26 39.61C413.06 38.88 412.73 38.11 412.27 37.31C411.81 36.51 411.19 35.82 410.4 35.23C409.61 34.64 408.61 34.34 407.39 34.34C406.17 34.34 405.09 34.63 404.3 35.2C403.5 35.77 402.88 36.47 402.44 37.27C402 38.08 401.69 38.86 401.51 39.6H413.26V39.61Z" fill="url(#paint4_linear_15_29)"/>
<path d="M444.48 58.93H430.43C430.43 58.93 430.45 58.88 430.45 58.87C430.45 58.86 430.45 58.85 430.46 58.83C430.46 58.81 430.47 58.8 430.47 58.78C430.47 58.76 430.47 58.74 430.48 58.71C430.49 58.68 430.49 58.64 430.49 58.6C430.49 58.56 430.49 58.5 430.51 58.43C430.53 58.35 430.53 58.25 430.53 58.12L430.63 56.55C430.68 55.65 430.71 54.94 430.71 54.43L430.73 53.76L430.78 51.31L430.85 44.35V41.33C430.85 38.34 430.82 35.76 430.75 33.59L430.4 25.75H444.45V28.75C446.6 26.79 450.64 25.8 456.58 25.8C458.58 25.8 460.39 26.08 462.02 26.65L456.26 38.43C455.78 37.37 455.12 36.56 454.29 36.02C453.46 35.48 452.52 35.21 451.49 35.21C450.46 35.21 449.38 35.3 448.29 35.48C445.73 35.95 444.45 36.8 444.45 38.05V58.94L444.48 58.93Z" fill="white"/>
<path d="M444.48 58.93H430.43C430.43 58.93 430.45 58.88 430.45 58.87C430.45 58.86 430.45 58.85 430.46 58.83C430.46 58.81 430.47 58.8 430.47 58.78C430.47 58.76 430.47 58.74 430.48 58.71C430.49 58.68 430.49 58.64 430.49 58.6C430.49 58.56 430.49 58.5 430.51 58.43C430.53 58.35 430.53 58.25 430.53 58.12L430.63 56.55C430.68 55.65 430.71 54.94 430.71 54.43L430.73 53.76L430.78 51.31L430.85 44.35V41.33C430.85 38.34 430.82 35.76 430.75 33.59L430.4 25.75H444.45V28.75C446.6 26.79 450.64 25.8 456.58 25.8C458.58 25.8 460.39 26.08 462.02 26.65L456.26 38.43C455.78 37.37 455.12 36.56 454.29 36.02C453.46 35.48 452.52 35.21 451.49 35.21C450.46 35.21 449.38 35.3 448.29 35.48C445.73 35.95 444.45 36.8 444.45 38.05V58.94L444.48 58.93Z" fill="url(#paint5_linear_15_29)"/>
<path d="M26.48 30.28L45.93 25.52V53.96C45.93 56.55 43.84 58.64 41.26 58.64H11.43C10.87 58.64 10.34 58.45 9.84 58.26L20.44 49.18C22.03 50.56 24.05 51.46 26.32 51.46C31.33 51.46 35.4 47.39 35.4 42.38C35.4 37.37 31.33 33.3 26.32 33.3C21.31 33.3 17.24 37.37 17.24 42.38C17.24 43.78 17.64 45.05 18.2 46.24L7.18 55.68C6.95 55.14 6.74 54.57 6.74 53.95V25.45L26.46 30.29L26.48 30.28ZM26.33 36.82C29.4 36.82 31.88 39.3 31.88 42.37C31.88 45.44 29.4 47.92 26.33 47.92C23.26 47.92 20.78 45.44 20.78 42.37C20.78 39.3 23.26 36.82 26.33 36.82ZM37.74 29.91C36.45 29.91 35.4 30.95 35.4 32.25C35.4 33.55 36.44 34.59 37.74 34.59C39.04 34.59 40.08 33.55 40.08 32.25C40.08 30.96 39.04 29.91 37.74 29.91ZM44.42 18.53L52.95 20.79L26.47 26.95L0 20.78L8.53 18.52L15.98 0H36.97L44.42 18.52V18.53Z" fill="url(#paint6_linear_15_29)"/>
</g>
<defs>
<linearGradient id="paint0_linear_15_29" x1="228.43" y1="59.7272" x2="292.227" y2="2.51456" gradientUnits="userSpaceOnUse">
<stop stop-color="#F9CE34"/>
<stop offset="0.52" stop-color="#EE2A7B"/>
<stop offset="1" stop-color="#6228D7"/>
</linearGradient>
<linearGradient id="paint1_linear_15_29" x1="280.642" y1="58.5542" x2="314.158" y2="49.1976" gradientUnits="userSpaceOnUse">
<stop stop-color="#F9CE34"/>
<stop offset="0.52" stop-color="#EE2A7B"/>
<stop offset="1" stop-color="#6228D7"/>
</linearGradient>
<linearGradient id="paint2_linear_15_29" x1="293.175" y1="59.4651" x2="347.349" y2="7.39309" gradientUnits="userSpaceOnUse">
<stop stop-color="#F9CE34"/>
<stop offset="0.52" stop-color="#EE2A7B"/>
<stop offset="1" stop-color="#6228D7"/>
</linearGradient>
<linearGradient id="paint3_linear_15_29" x1="336.683" y1="58.6327" x2="389.571" y2="6.51275" gradientUnits="userSpaceOnUse">
<stop stop-color="#F9CE34"/>
<stop offset="0.52" stop-color="#EE2A7B"/>
<stop offset="1" stop-color="#6228D7"/>
</linearGradient>
<linearGradient id="paint4_linear_15_29" x1="379.889" y1="59.4651" x2="434.062" y2="7.41973" gradientUnits="userSpaceOnUse">
<stop stop-color="#F9CE34"/>
<stop offset="0.52" stop-color="#EE2A7B"/>
<stop offset="1" stop-color="#6228D7"/>
</linearGradient>
<linearGradient id="paint5_linear_15_29" x1="424.768" y1="58.64" x2="474.946" y2="19.2287" gradientUnits="userSpaceOnUse">
<stop stop-color="#F9CE34"/>
<stop offset="0.52" stop-color="#EE2A7B"/>
<stop offset="1" stop-color="#6228D7"/>
</linearGradient>
<linearGradient id="paint6_linear_15_29" x1="-0.239998" y1="58.34" x2="51.39" y2="8.08" gradientUnits="userSpaceOnUse">
<stop stop-color="#F9CE34"/>
<stop offset="0.52" stop-color="#EE2A7B"/>
<stop offset="1" stop-color="#6228D7"/>
</linearGradient>
<clipPath id="clip0_15_29">
<rect width="462.05" height="60.38" fill="white"/>
</clipPath>
</defs>
</svg>
