<svg width="32" height="32" viewBox="0 0 32 32" fill="none" xmlns="http://www.w3.org/2000/svg">
  <rect width="32" height="32" rx="8" fill="url(#paint0_linear)" />
  <path d="M20.5 11.5a1.5 1.5 0 1 0 0-3 1.5 1.5 0 0 0 0 3z" fill="white"/>
  <path fill-rule="evenodd" clip-rule="evenodd" d="M16 21a5 5 0 1 0 0-10 5 5 0 0 0 0 10zm0-2a3 3 0 1 0 0-6 3 3 0 0 0 0 6z" fill="white"/>
  <path fill-rule="evenodd" clip-rule="evenodd" d="M6 16c0-5.523 4.477-10 10-10s10 4.477 10 10-4.477 10-10 10S6 21.523 6 16zm10-8a8 8 0 1 0 0 16 8 8 0 0 0 0-16z" fill="white"/>
  <defs>
    <linearGradient id="paint0_linear" x1="4" y1="4" x2="28" y2="28" gradientUnits="userSpaceOnUse">
      <stop stop-color="#8a3ab9" />
      <stop offset="0.33" stop-color="#e95950" />
      <stop offset="0.66" stop-color="#fccc63" />
      <stop offset="1" stop-color="#5851db" />
    </linearGradient>
  </defs>
</svg>